<svg width="90" height="101" viewBox="0 0 465 522" fill="none" xmlns="http://www.w3.org/2000/svg">
<path d="M464 372.905V146.405C462.8 130.805 448.5 118.238 441.5 113.905C387.5 82.905 274.8 18.005 256 6.40496C237.2 -5.19504 216.5 1.57163 208.5 6.40496L25 112.405C5.8 123.205 0.333333 140.572 0 147.905V374.905C0 388.905 12.3333 401.405 18.5 405.905L210.5 516.405C227.7 526.405 246.667 520.572 254 516.405L437.5 410.405C459.1 398.005 464.167 380.238 464 372.905Z" fill="#08FFFF"/>
<path d="M232 260.905L5.5 391.905C8.3 397.505 16 403.905 19.5 406.405L209 515.405C231 528.205 253.167 518.405 261.5 511.905L440 408.905C447.6 405.305 455.167 395.738 458 391.405L232 260.905Z" fill="#008181"/>
<path d="M299.501 299.905L366.001 338.405C275.5 467.905 140.5 408.405 98.0005 338.405C63.2005 286.004 79.6059 211.905 98.0005 183.405C179.001 57.905 324.001 104.905 366.001 183.405L299.001 221.905C234.5 129.905 117.501 220.905 165.001 299.905C216.201 370.705 285.001 328.405 299.501 299.905Z" fill="#F9F9F9"/>
<path d="M458 130.405L232 260.905L458 391.405C462.4 385.005 463.833 376.405 464 372.905V147.905C464 140.705 460 133.238 458 130.405Z" fill="#00C0C0"/>
</svg>
