<svg width="79" height="110" viewBox="0 0 79 110" fill="none" xmlns="http://www.w3.org/2000/svg">
<path d="M78.016 21.5736H0L7.14937 101.095L39.008 110L70.8666 101.095L78.016 21.5736Z" fill="#008181"/>
<path d="M70.8667 28.0958H39.0081V103.227L64.7207 96.0776L70.8667 28.0958Z" fill="#08FFFF"/>
<path d="M63.4663 37.8792H14.5496L15.3717 46.3581L38.8024 46.7929L16.1938 57.4459L17.2215 66.7944H51.3399L50.7233 79.8389L39.6245 83.3174L27.4981 80.9259L27.0871 73.0992H18.0436L19.0713 87.883L39.6245 93.3181L59.9723 87.4481L62.0276 57.4459H42.502L62.8497 47.8799L63.4663 37.8792Z" fill="#FEFEFE" fill-opacity="0.9"/>
<path d="M29.6806 4.49293V0H15.0513V15.0513H29.6806V11.2323H19.3275V4.49293H29.6806Z" fill="#060606"/>
<path d="M31.7062 8.98586V0H46.3355V4.26828L35.5323 4.49293V6.2901H46.3355V15.0513H31.7062V11.2323H42.0592V8.98586H31.7062Z" fill="#060606"/>
<path d="M62.9904 0H48.3611V8.98586H58.4891V11.2323H48.136V15.0513H63.2155L62.9904 6.2901H52.1872V4.26828H62.9904V0Z" fill="#060606"/>
</svg>
