<svg width="78" height="110" viewBox="0 0 78 110" fill="none" xmlns="http://www.w3.org/2000/svg">
<path d="M77.9271 21.6743H0L7.14123 101.105L38.9636 110L70.7859 101.105L77.9271 21.6743Z" fill="#008181"/>
<path d="M70.7859 28.189H38.9636V103.235L64.647 96.0933L70.7859 28.189Z" fill="#08FFFF"/>
<path d="M17.1639 67.2777L14.533 37.8358H63.394L62.3917 47.608H25.1822L26.0592 57.6308H61.5147L58.8838 87.5739L38.9635 93.2117L18.9179 87.4486L17.5398 72.2891H27.312L28.0637 80.0568L38.9635 82.9383L49.8633 80.0568L50.9908 67.2777H17.1639Z" fill="#FEFEFE" fill-opacity="0.9"/>
<path d="M12.1527 0H7.2666V14.9089H12.1527V9.8975H16.7882V14.9089H21.6743V0H16.7882V4.88611H12.1527V0Z" fill="#060606"/>
<path d="M23.9295 4.88611V0H37.5855V4.88611H33.2005V14.9089H28.1892V4.88611H23.9295Z" fill="#060606"/>
<path d="M39.7153 14.9089V0H44.852L47.9841 5.26196L51.2415 0H56.3782V14.9089H51.4921V7.51708L47.9841 12.779L44.6015 7.51708V14.9089H39.7153Z" fill="#060606"/>
<path d="M63.8953 0H58.8839V14.9089H70.786V9.8975H63.8953V0Z" fill="#060606"/>
</svg>
