<svg width="78" height="110" viewBox="0 0 78 110" fill="none" xmlns="http://www.w3.org/2000/svg">
<path d="M77.6618 21.975H0L7.11691 101.135L38.8309 110L70.5448 101.135L77.6618 21.975Z" fill="#008181"/>
<path d="M70.5448 28.4677H38.8308V103.258L64.4267 96.1407L70.5448 28.4677Z" fill="#08FFFF"/>
<path d="M35.9592 0H31.9637V11.4869H24.9717V15.4824H35.9592V0Z" fill="#060606"/>
<path d="M52.9399 0H38.3315V9.61407H48.9444V11.4869H38.3315V15.4824H52.9399V5.99319H42.4518V4.12032H52.9399V0Z" fill="#060606"/>
<path d="M35.0852 34.7106H26.0955V81.2826L9.98877 76.7878V86.277L35.0852 93.269V34.7106Z" fill="#FEFEFE" fill-opacity="0.9"/>
<path d="M67.6732 34.7106H41.7027L41.8276 70.42L56.5608 68.0477L55.3123 79.7844L41.8276 83.5301V93.269L63.1783 87.2758L65.8003 57.5596L50.6925 59.9319V43.8252H66.9241L67.6732 34.7106Z" fill="#FEFEFE" fill-opacity="0.9"/>
</svg>
