<svg width="104" height="104" viewBox="0 0 104 104" fill="none" xmlns="http://www.w3.org/2000/svg">
<path d="M32.5 92L11 34C8.83338 39 5.60005 52.5 10 66.5C14.4 80.5 26.8334 89.3333 32.5 92Z" fill="#08FFFF"/>
<circle cx="52" cy="52" r="50.5" stroke="#08FFFF" stroke-width="3"/>
<path d="M29 27L15 27.5C19.5 20.5 33 7.99998 50.5 7.49998C64.5 7.09998 77.3333 15 82 19C76 19 71 26 77.5 36C82.7 44 82 52.6667 81 56L74 79L58 31H63C64.6 31 65 29.6667 65 29C65 28.3333 64.6 27 63 27C61.4 27 54 27.3333 50.5 27.5C47.3333 27.3333 40.7 27 39.5 27C38 27 37.5 27.5 37.5 29C37.5 30.2 38.5 30.5 39 30.5L43.5 31L50.5 50L41 79.5L24 30.5H29C31 30.5 31.5 30 31.5 28.5C31.5 27.3 29.8333 27 29 27Z" fill="#08FFFF"/>
<path d="M67 94L52.5 56L39.5 95C49.1 98.6 61.8333 95.8333 67 94Z" fill="#08FFFF"/>
<path d="M88 51.5L74.5 90.5C83.5 86 89 78 95 64.5C99.8 53.7 94.3333 37.6667 91 31C93 35.4 89.8333 46.5 88 51.5Z" fill="#08FFFF"/>
</svg>
