<svg width="90" height="101" viewBox="0 0 465 523" fill="none" xmlns="http://www.w3.org/2000/svg">
<path d="M464 373V146.5C462.8 130.9 448.5 118.333 441.5 114C387.5 83 274.8 18.1 256 6.50001C237.2 -5.09999 216.5 1.66667 208.5 6.50001L25 112.5C5.8 123.3 0.333333 140.667 0 148V375C0 389 12.3333 401.5 18.5 406L210.5 516.5C227.7 526.5 246.667 520.667 254 516.5L437.5 410.5C459.1 398.1 464.167 380.333 464 373Z" fill="#08FFFF"/>
<path d="M232 261L5.5 392C8.3 397.6 16 404 19.5 406.5L209 515.5C231 528.3 253.167 518.5 261.5 512L440 409C447.6 405.4 455.167 395.833 458 391.5L232 261Z" fill="#008181"/>
<path d="M299.501 300L366.001 338.5C275.5 468 140.5 408.5 98.0005 338.5C63.2005 286.099 79.6059 212 98.0005 183.5C179.001 58 324.001 105 366.001 183.5L299.001 222C234.5 130 117.501 221 165.001 300C216.201 370.8 285.001 328.5 299.501 300Z" fill="#F9F9F9"/>
<path d="M458 130.5L232 261L458 391.5C462.4 385.1 463.833 376.5 464 373V148C464 140.8 460 133.333 458 130.5Z" fill="#00C0C0"/>
<path d="M369.5 235.5H352.5V252.5H335V269.5H352.5V287H369.5V269.5H386.5V252.5H369.5V235.5Z" fill="#F9F9F9"/>
<path d="M417 252.5H400V269.5H417V287H434V269.5H451V252.5H434V235.5H417V252.5Z" fill="#F9F9F9"/>
</svg>
