<svg width="201" height="148" viewBox="0 0 201 148" fill="none" xmlns="http://www.w3.org/2000/svg">
<path d="M183.684 111.15C189.931 116.505 196.554 123.065 198.797 131.395C199.906 135.515 171.513 144.668 167.003 145.795" stroke="#08FFFF" stroke-width="3" stroke-linecap="round"/>
<path d="M82.3147 63.6733C90.4859 109.069 149.076 126.548 188.816 126.548" stroke="#08FFFF" stroke-width="3" stroke-linecap="round"/>
<path d="M2 25.5732C4.36882 30.7621 7.52856 35.4001 10.3513 40.3398C11.2999 41.9998 12.0599 43.7642 13.1034 45.3695C13.6691 46.2399 14.3834 46.7506 14.6408 47.78" stroke="#08FFFF" stroke-width="3" stroke-linecap="round"/>
<path d="M7.80811 36.1643C12.867 34.213 17.9314 32.0106 23.182 30.698" stroke="#08FFFF" stroke-width="3" stroke-linecap="round"/>
<path d="M16.6907 19.4237C18.7632 25.7354 21.4067 31.7643 24.1309 37.7965C24.6606 38.9695 25.915 40.3026 25.915 41.6305" stroke="#08FFFF" stroke-width="3" stroke-linecap="round"/>
<path d="M30.3564 34.1144C29.5273 32.4118 26.9907 28.7909 28.1167 26.5982C28.8673 25.1366 31.3156 24.5599 32.7478 24.2067C36.0339 23.3965 39.633 25.5404 40.7385 28.8569C41.4337 30.9425 41.4765 34.3793 39.2011 35.3101C37.5813 35.9728 35.8668 36.1642 34.1334 36.1642C31.5785 36.1642 30.4893 33.8639 28.9898 32.0645" stroke="#08FFFF" stroke-width="3" stroke-linecap="round"/>
<path d="M37.8726 20.4487C40.8625 22.1457 42.6771 24.0422 45.0471 26.4464C45.3706 26.7747 48.1242 30.0667 48.4635 29.3694C49.7967 26.6288 49.3489 22.3925 49.5643 19.4238C49.7386 17.0225 49.83 14.6563 49.83 12.2493" stroke="#08FFFF" stroke-width="3" stroke-linecap="round"/>
<path d="M53.2464 17.0322C55.462 16.1405 58.5375 15.1447 59.8894 12.9325C60.2531 12.3373 61.3026 10.9297 60.6107 10.1994C59.2767 8.79125 56.3559 9.17442 54.6509 9.17442C51.751 9.17442 51.3292 11.8738 51.2155 14.4319C51.019 18.8534 53.4717 25.2542 58.8645 24.5104C61.3331 24.1699 62.4882 20.3963 63.154 18.3988" stroke="#08FFFF" stroke-width="3" stroke-linecap="round"/>
<path d="M68.6203 18.7405C68.5248 12.815 65.2437 7.43301 63.1541 2" stroke="#08FFFF" stroke-width="3" stroke-linecap="round"/>
<path d="M66.229 8.83274C67.974 6.24018 69.6813 3.36646 73.0619 3.36646" stroke="#08FFFF" stroke-width="3" stroke-linecap="round"/>
<path d="M48.8535 43.6617C50.1539 43.4079 52.6632 42.733 52.5364 44.8893C52.4771 45.896 50.2798 45.2746 50.0811 44.4801" stroke="#08FFFF" stroke-width="3" stroke-linecap="round"/>
<path d="M54.9917 50.6182C56.4108 53.9514 58.3277 56.8809 59.9022 60.0299" stroke="#08FFFF" stroke-width="3" stroke-linecap="round"/>
<path d="M61.5388 39.5696C62.9759 44.9796 62.8561 52.0785 68.268 55.4376C71.7041 57.5704 74.1984 53.125 75.4518 50.6181" stroke="#08FFFF" stroke-width="3" stroke-linecap="round"/>
<path d="M59.4929 48.1629C62.3644 44.9723 65.6183 41.3777 69.3138 39.1604" stroke="#08FFFF" stroke-width="3" stroke-linecap="round"/>
</svg>
