<svg width="46" height="107" viewBox="0 0 46 107" fill="none" xmlns="http://www.w3.org/2000/svg">
<path d="M6.5 3V0.5H1.5V3H6.5ZM4 68.3595H1.5V70.8595H4V68.3595ZM42.5621 70.8595C43.9428 70.8595 45.0621 69.7402 45.0621 68.3595C45.0621 66.9788 43.9428 65.8595 42.5621 65.8595V70.8595ZM1.5 3V68.3595H6.5V3H1.5ZM4 70.8595H42.5621V65.8595H4V70.8595Z" fill="#F9F9F9"/>
<path d="M1.67086 102.092L0.7625 104.421L5.42077 106.238L6.32914 103.908L1.67086 102.092ZM29.4902 37.6405L31.7906 36.6616L29.3893 31.0187L27.1611 36.7322L29.4902 37.6405ZM40.2617 69.3384C40.8023 70.6088 42.2705 71.2005 43.541 70.6599C44.8115 70.1192 45.4031 68.6511 44.8625 67.3806L40.2617 69.3384ZM6.32914 103.908L31.8193 38.5489L27.1611 36.7322L1.67086 102.092L6.32914 103.908ZM27.1898 38.6194L40.2617 69.3384L44.8625 67.3806L31.7906 36.6616L27.1898 38.6194Z" fill="#F9F9F9"/>
</svg>
