<svg width="198" height="502" viewBox="0 0 198 502" fill="none" xmlns="http://www.w3.org/2000/svg">
<g id="LA">
<path id="L" d="M6.5 3V0.5H1.5V3H6.5ZM4 326.729H1.5V329.229H4V326.729ZM195 329.229C196.381 329.229 197.5 328.109 197.5 326.729C197.5 325.348 196.381 324.229 195 324.229V329.229ZM1.5 3V326.729H6.5V3H1.5ZM4 329.229H195V324.229H4V329.229Z" fill="#F9F9F9"/>
<path id="A" d="M1.67086 497.397L0.7625 499.726L5.42077 501.542L6.32914 499.213L1.67086 497.397ZM130.254 174.576L132.555 173.597L130.153 167.954L127.925 173.668L130.254 174.576ZM192.7 327.708C193.24 328.978 194.708 329.57 195.979 329.029C197.249 328.488 197.841 327.02 197.3 325.75L192.7 327.708ZM6.32914 499.213L132.583 175.485L127.925 173.668L1.67086 497.397L6.32914 499.213ZM127.954 175.555L192.7 327.708L197.3 325.75L132.555 173.597L127.954 175.555Z" fill="#F9F9F9"/>
</g>
</svg>
