<svg width="90" height="68" viewBox="0 0 90 68" fill="none" xmlns="http://www.w3.org/2000/svg">
<path d="M20.3128 51.0438C20.3128 52.5726 19.9852 60.2165 10.9217 61.9637M8.41012 59.1245C8.94493 56.0226 12.2038 51.75 19.3156 48.0022M37.5663 37.3939C32.7615 39.4905 31.2692 46.2754 31.1236 49.4058C30.796 54.429 32.2155 53.6646 33.3075 52.5726M20.2441 47.6187L20.0671 47.0523L19.5389 47.3228C12.0611 51.1526 8.5033 55.6413 7.91739 59.0396C7.67404 60.451 8.08445 61.3962 8.82438 61.9384C9.515 62.4445 10.3927 62.5233 10.975 62.4609L10.9958 62.4586L11.0163 62.4547C15.7031 61.5512 18.1762 59.1041 19.4591 56.6538C20.7289 54.2282 20.8128 51.8399 20.8128 51.0438C20.8128 49.7478 20.4326 48.2219 20.2441 47.6187ZM31.6225 49.4383L31.6226 49.4384L31.623 49.429C31.6935 47.9131 32.0929 45.4937 33.0584 43.2067C34.0263 40.9139 35.5307 38.8277 37.7663 37.8522L37.7782 37.8469L37.7899 37.8411C37.8386 37.8168 37.8799 37.807 37.9052 37.8048C37.92 37.8333 37.9484 37.906 37.958 38.058C37.9709 38.2643 37.9463 38.5764 37.8431 39.0303C37.5776 40.1987 36.6043 43.2581 35.5534 46.1789C35.0295 47.635 34.4906 49.0445 34.0165 50.1547C33.7792 50.7103 33.5608 51.1846 33.3709 51.5497C33.1716 51.9329 33.0298 52.1432 32.954 52.219C32.6905 52.4825 32.4406 52.6909 32.2284 52.8015C32.1247 52.8555 32.0541 52.8733 32.0128 52.8763C31.981 52.8787 31.9707 52.8731 31.9606 52.8664C31.9167 52.8371 31.7653 52.6789 31.6661 52.0902C31.5713 51.528 31.5416 50.6781 31.6225 49.4383ZM55.6296 48.6642L56.0058 47.2897L54.8533 48.1278C51.9025 50.2739 50.594 52.5564 50.3011 53.519L50.1084 54.1521L50.7701 54.1645C52.2114 54.1914 53.3191 53.156 54.0824 52.0468C54.8602 50.9164 55.3826 49.5671 55.6296 48.6642ZM67.6336 44.3337L67.3778 43.5662L66.8057 44.1383C66.7245 44.2195 66.6317 44.2929 66.4857 44.4083L66.4704 44.4204C66.3207 44.5388 66.1372 44.6854 65.9172 44.8907C65.4764 45.3021 64.9082 45.931 64.1289 47.0443C63.7302 47.6138 63.4183 48.17 63.2061 48.6719C62.9982 49.1636 62.8692 49.6423 62.8784 50.0451C62.883 50.2489 62.9238 50.4692 63.0423 50.6631C63.1692 50.8707 63.3658 51.0145 63.6077 51.0727C64.0379 51.1762 64.5302 50.9928 65.0104 50.7104C67.0695 49.4992 67.6497 47.2267 67.7654 46.1851C67.8605 45.3292 67.73 44.6229 67.6336 44.3337ZM8.90285 59.2095C9.39629 56.3476 12.4626 52.2025 19.4495 48.497C19.6203 49.1855 19.8128 50.1881 19.8128 51.0438C19.8128 51.7765 19.7329 53.9746 18.5731 56.1899C17.4282 58.377 15.2112 60.6217 10.8486 61.4686C10.4136 61.5111 9.8287 61.4346 9.41546 61.1318C9.04519 60.8605 8.70941 60.3315 8.90285 59.2095ZM37.3559 36.9402C34.7927 38.0631 33.1516 40.4145 32.1371 42.8177C31.1198 45.2276 30.7 47.7633 30.6243 49.3779C30.5417 50.6474 30.5667 51.5841 30.68 52.2564C30.7889 52.903 30.9993 53.4273 31.4058 53.6984C31.8566 53.9989 32.3451 53.8684 32.6906 53.6882C33.0415 53.5053 33.3785 53.2087 33.6611 52.9261C33.8583 52.729 34.0611 52.3899 34.2581 52.0112C34.4644 51.6145 34.694 51.1145 34.9361 50.5474C35.4209 49.4122 35.9672 47.9826 36.4943 46.5175C37.5455 43.5962 38.5378 40.4858 38.8183 39.2519C38.9335 38.7448 38.9771 38.3307 38.956 37.9951C38.935 37.6622 38.8472 37.3638 38.6564 37.1402C38.2384 36.6506 37.6405 36.8023 37.3559 36.9402ZM51.6354 52.9853C52.0549 52.24 52.8191 51.1837 54.0511 50.0651C53.831 50.544 53.5656 51.0336 53.2586 51.4799C52.7716 52.1876 52.2253 52.7228 51.6354 52.9853ZM66.5996 45.6218C66.6691 45.5568 66.7344 45.4987 66.7963 45.4455C66.8023 45.6338 66.7969 45.8463 66.7715 46.0746C66.6689 46.9986 66.1571 48.8757 64.5034 49.8484C64.2945 49.9713 64.1325 50.041 64.0134 50.0754C63.9567 50.0917 63.9145 50.0986 63.885 50.1009C63.8818 50.0823 63.8789 50.0566 63.8781 50.0223C63.8736 49.8245 63.9426 49.4979 64.1272 49.0613C64.3074 48.6351 64.5824 48.1402 64.9481 47.6178C65.6976 46.547 66.2214 45.9748 66.5996 45.6218ZM28.8304 28.5028H28.8414L28.8525 28.5023C32.2031 28.3542 37.3755 27.4022 42.0442 25.0193C46.717 22.6343 50.9404 18.7839 52.2503 12.8232C52.5125 11.6521 52.4086 9.88205 51.2607 8.32826C50.1035 6.76178 47.9482 5.4984 44.2708 5.22796C38.7341 4.67289 24.9277 6.11867 13.5374 16.2728C9.98431 19.4403 7.91032 22.2311 6.91364 24.7219C5.91013 27.2298 6.0067 29.416 6.75726 31.3252C7.5006 33.216 8.87106 34.7994 10.3549 36.1496C11.4684 37.1629 12.6762 38.0701 13.7544 38.8801C14.1082 39.1459 14.448 39.4012 14.766 39.6463C16.8574 41.2584 18.2502 42.4073 19.1399 43.1863C19.585 43.5761 19.9014 43.8708 20.1152 44.083C20.2222 44.1892 20.301 44.2723 20.3563 44.3344C20.4135 44.3986 20.4334 44.4272 20.4348 44.4291L20.4348 44.4292L20.6794 44.8205L21.089 44.6081L29.9341 40.0218L30.0362 39.9688L30.1049 39.8766C30.775 38.9773 31.979 37.6241 33.3928 36.512C34.824 35.3862 36.3801 34.5791 37.7708 34.6177C38.6591 34.6424 39.1993 34.8972 39.5408 35.2245C39.8893 35.5585 40.0884 36.0229 40.1864 36.5678C40.2845 37.1138 40.2743 37.703 40.2344 38.2426C40.2175 38.4714 40.1959 38.685 40.1759 38.8821C40.1724 38.9167 40.169 38.9508 40.1656 38.9843C40.1441 39.1993 40.1239 39.4116 40.1239 39.5779V40.3362L40.8208 40.0375C41.0502 39.9392 41.4223 39.8107 41.7759 39.7481C41.9527 39.7167 42.106 39.7053 42.225 39.7141C42.3424 39.7228 42.3829 39.7478 42.3862 39.7498C42.3864 39.75 42.3864 39.75 42.3863 39.7499C42.5249 39.8608 42.6729 39.9106 42.744 39.9345C42.7479 39.9358 42.7516 39.937 42.755 39.9381C42.7673 39.9423 42.7776 39.9459 42.7859 39.9489C42.8003 40.0013 42.8238 40.1336 42.8133 40.4193C42.7747 41.4611 42.3272 43.8618 40.9035 49.5018L40.8883 49.5621V49.6242V52.245V52.5915L41.2127 52.7132C41.3625 52.7693 41.4976 52.7455 41.5805 52.7177C41.6616 52.6904 41.7242 52.6496 41.7647 52.6194C41.8459 52.559 41.9176 52.4812 41.9779 52.4084C42.1028 52.2573 42.254 52.0339 42.4339 51.7361C42.7969 51.1352 43.3141 50.1689 44.0218 48.7156C45.4387 45.806 47.6361 40.9089 50.9137 32.9989L50.9452 32.9229L50.9507 32.8408C50.9655 32.6183 51.0352 32.2655 51.1859 31.9633C51.3377 31.659 51.5276 31.4861 51.7511 31.4414C52.2536 31.3409 52.9832 31.2871 53.6963 31.2736C54.4104 31.2601 55.0616 31.288 55.4043 31.3369C55.4821 31.348 55.4994 31.3711 55.5064 31.3805L55.5067 31.3808C55.5223 31.4017 55.5573 31.4673 55.5622 31.622C55.5722 31.9423 55.4469 32.4578 55.1302 33.144C54.4109 34.7025 53.7563 37.9279 56.1293 42.2221L56.5385 42.9625L56.9899 42.247C57.7388 41.0597 58.9107 39.1484 59.9948 37.2698C61.0713 35.4044 62.085 33.5306 62.4951 32.4371C62.9553 31.2098 63.0936 30.4356 63.1867 29.9141C63.1965 29.8596 63.2057 29.8079 63.2148 29.7586C63.2629 29.4977 63.2976 29.364 63.3494 29.2604C63.3934 29.1724 63.4641 29.0786 63.6373 28.9488C63.7622 28.8551 64.0176 28.7561 64.4054 28.6792C64.7768 28.6055 65.2107 28.563 65.6399 28.5432C66.0674 28.5235 66.4786 28.5268 66.8003 28.5415C66.9614 28.5488 67.0963 28.5589 67.1972 28.5697C67.2699 28.5774 67.3095 28.5841 67.3251 28.5868C67.3349 28.5884 67.3354 28.5885 67.3288 28.5863C67.3478 28.5927 67.3666 28.5987 67.3852 28.6048C67.4682 28.6316 67.5479 28.6575 67.6349 28.7015C67.7382 28.7537 67.8047 28.8104 67.8409 28.8684C67.879 28.9293 68.0284 29.2351 67.406 30.1168C67.0017 30.6896 66.7935 31.5404 66.7108 32.4518C66.6265 33.3806 66.6667 34.4433 66.8143 35.4976C66.9619 36.5521 67.2193 37.6144 67.5787 38.5405C67.9345 39.4576 68.407 40.2847 69.0099 40.8241L69.2546 41.0431L69.5528 40.9055C70.9476 40.2617 74.4451 39.0109 77.3001 39.0949C79.1103 39.1481 82.031 39.5761 84.5622 40.9076C87.075 42.2295 89.1744 44.4199 89.4837 48.0289L89.4842 48.0336C89.6125 49.3807 89.0388 52.3164 85.7317 53.4307C86.0281 53.1542 86.4706 52.7915 87.1074 52.3231C87.6136 51.9651 88.4375 50.8746 88.6231 49.0188C88.6892 48.3571 88.5149 47.5155 88.1198 46.6492C87.7206 45.7739 87.0814 44.84 86.1741 43.9904C84.3528 42.2847 81.4674 40.9326 77.3081 41.0435C76.4004 41.0437 74.9641 41.0992 73.5832 41.2654C72.8912 41.3488 72.2038 41.461 71.5996 41.611C71.0057 41.7585 70.4491 41.9525 70.0487 42.2194L69.7 42.4519L69.868 42.8359C70.1102 43.3894 70.5905 44.8088 70.5905 46.0206C70.5905 46.3117 70.4285 46.916 70.0432 47.6967C69.668 48.4569 69.1094 49.3265 68.3838 50.137C66.9286 51.7626 64.8539 53.0988 62.2747 52.947C61.6525 52.9104 61.3013 52.7415 61.1035 52.5457C60.9096 52.3538 60.7959 52.0696 60.7882 51.6555C60.772 50.7923 61.222 49.5813 61.9333 48.2807C62.6325 47.0022 63.5391 45.7168 64.3382 44.7318C64.7376 44.2394 65.1047 43.8288 65.4001 43.5352C65.5482 43.388 65.6724 43.2761 65.7693 43.1996C65.8498 43.136 65.8887 43.1152 65.8934 43.1118C65.894 43.1114 65.894 43.1112 65.8935 43.1113L66.4801 42.9354L66.1762 42.3915C65.4942 41.1712 64.0861 38.1348 63.8347 35.7045L63.6703 34.1161L62.8994 35.5145C62.1186 36.931 60.9096 39.0711 59.8208 40.8879C59.2759 41.7971 58.7647 42.6194 58.3539 43.228C58.1479 43.5332 57.9725 43.7767 57.8341 43.9483C57.7646 44.0345 57.7105 44.0949 57.6714 44.1335C57.6615 44.1432 57.6538 44.1503 57.6483 44.1552L57.2319 44.3337L57.4131 44.7867C57.5877 45.2231 57.8481 45.972 58.0534 46.7799C58.2613 47.598 58.3998 48.4282 58.3611 49.047C58.3112 49.8458 58.0081 51.346 56.8506 52.7453C55.7024 54.1331 53.6708 55.4739 50.0658 55.898C49.3528 55.9819 48.8439 55.9615 48.4944 55.8802C48.1503 55.8002 47.9993 55.6717 47.9283 55.5623C47.8547 55.449 47.8111 55.27 47.8545 54.9813C47.8982 54.6912 48.0243 54.3342 48.2336 53.9202C49.0799 52.2458 51.0553 50.0737 52.6513 48.5684L52.6566 48.5633L52.6618 48.5582C52.9449 48.275 53.3647 47.8216 53.7067 47.3762C53.8767 47.1547 54.0383 46.9213 54.1537 46.7032C54.2114 46.5941 54.2643 46.4764 54.299 46.3568C54.332 46.2431 54.3604 46.088 54.3273 45.9226L54.3153 45.8628L54.2894 45.8077C53.8567 44.8883 53.2012 43.4039 52.6442 41.9464C52.3657 41.2176 52.1139 40.5012 51.9271 39.8686C51.7377 39.2273 51.6249 38.7044 51.6063 38.3504L50.6517 38.1701C49.0439 41.7144 45.6985 49.0355 45.0976 50.1516C45.0309 50.2754 44.9492 50.4311 44.854 50.6122C44.3903 51.4949 43.6088 52.9826 42.7053 54.3435C42.1606 55.1639 41.5871 55.9136 41.0306 56.4462C40.4517 57.0003 39.9917 57.2219 39.6661 57.2056C39.227 57.1836 38.8985 57.0401 38.6409 56.8C38.375 56.5521 38.1525 56.1708 37.9912 55.625C37.6651 54.5213 37.6284 52.8824 37.8453 50.7672L36.8755 50.5524C36.4093 51.8972 35.5759 53.9061 34.5972 55.5582C34.1069 56.3861 33.5934 57.1014 33.087 57.5982C32.5673 58.1082 32.1346 58.3108 31.7987 58.2973C30.4974 58.2453 29.5861 57.9933 28.8441 57.0311C28.0594 56.0134 27.4178 54.1461 26.9281 50.6818C26.9335 49.6807 27.1723 46.9338 28.1074 43.8736L28.4646 42.7043L27.3904 43.2881L22.3673 46.0181L21.9185 46.262L22.1719 46.7055C22.5586 47.3822 23.3683 49.5786 23.1988 52.5441C23.0944 54.3719 22.2743 57.7215 20.229 60.6831C18.196 63.6271 14.9669 66.1719 10.0163 66.4879C8.03324 66.6145 6.63958 66.2697 5.67063 65.6775C4.70763 65.0888 4.1156 64.2263 3.78566 63.2194C3.11567 61.1748 3.54558 58.58 4.18296 56.7881C4.2813 56.5393 4.55057 56.1016 5.08531 55.4876C5.6168 54.8774 6.38856 54.1179 7.45741 53.2302C9.59483 51.455 12.9044 49.1801 17.8173 46.5714L18.5078 46.2048L17.8854 45.7318C15.1621 43.662 9.2279 39.1945 7.37709 37.9607C6.27772 37.2277 4.51521 35.6821 3.04515 33.7844C1.5653 31.8741 0.451419 29.6963 0.501634 27.6877C0.525826 26.72 1.12517 24.7529 2.53585 22.2546C3.93443 19.7777 6.10116 16.8315 9.19042 13.9109C15.3641 8.07413 25.2281 2.33403 40.0251 0.653823L40.0315 0.653011C42.7044 0.314445 46.711 0.45331 50.0465 1.93782C51.7075 2.67705 53.1869 3.74292 54.2619 5.23521C55.3342 6.72379 56.0249 8.66532 56.067 11.1944C56.1721 17.4963 52.0533 22.3281 46.8943 25.6013C41.7328 28.8762 35.6573 30.5041 32.1138 30.4512C24.8732 30.3431 21.9998 27.9759 21.2258 25.5572C21.1956 25.4628 21.1731 25.3817 21.1566 25.3126C21.158 25.3133 21.1595 25.3141 21.1609 25.3149C21.7131 25.619 22.5273 26.3379 23.1261 26.9367L23.1589 26.9696L23.1973 26.9958C23.9663 27.522 26.1021 28.5028 28.8304 28.5028ZM21.1189 25.0142C21.1189 25.0143 21.1187 25.0162 21.118 25.0194C21.1184 25.0157 21.1188 25.0141 21.1189 25.0142ZM20.8811 25.1981C20.8793 25.198 20.8783 25.1978 20.8782 25.1978L20.8811 25.1981Z" fill="#08FFFF" stroke="black"/>
</svg>
