<svg width="279" height="273" viewBox="0 0 279 273" fill="none" xmlns="http://www.w3.org/2000/svg">
<path d="M93.3187 219.537C93.3187 220.662 92.025 221.562 90.3937 221.562C88.5375 221.731 87.2438 220.831 87.2438 219.537C87.2438 218.412 88.5375 217.512 90.1688 217.512C91.8563 217.344 93.3187 218.244 93.3187 219.537ZM75.825 217.006C75.4313 218.131 76.5563 219.425 78.2438 219.762C79.7063 220.325 81.3938 219.762 81.7313 218.637C82.0688 217.512 81 216.219 79.3125 215.712C77.85 215.319 76.2188 215.881 75.825 217.006ZM100.688 216.05C99.0562 216.444 97.9312 217.512 98.1 218.806C98.2687 219.931 99.7313 220.662 101.419 220.269C103.05 219.875 104.175 218.806 104.006 217.681C103.837 216.612 102.319 215.881 100.688 216.05ZM137.7 0.5C59.6813 0.5 0 59.7312 0 137.75C0 200.131 39.2625 253.512 95.3438 272.3C102.544 273.594 105.075 269.15 105.075 265.494C105.075 262.006 104.906 242.769 104.906 230.956C104.906 230.956 65.5313 239.394 57.2625 214.194C57.2625 214.194 50.85 197.825 41.625 193.606C41.625 193.606 28.7437 184.775 42.525 184.944C42.525 184.944 56.5312 186.069 64.2375 199.456C76.5562 221.169 97.2 214.925 105.244 211.212C106.538 202.212 110.194 195.969 114.244 192.256C82.8 188.769 51.075 184.212 51.075 130.1C51.075 114.631 55.35 106.869 64.35 96.9687C62.8875 93.3125 58.1063 78.2375 65.8125 58.775C77.5687 55.1187 104.625 73.9625 104.625 73.9625C115.875 70.8125 127.969 69.1812 139.95 69.1812C151.931 69.1812 164.025 70.8125 175.275 73.9625C175.275 73.9625 202.331 55.0625 214.088 58.775C221.794 78.2937 217.013 93.3125 215.55 96.9687C224.55 106.925 230.062 114.687 230.062 130.1C230.062 184.381 196.931 188.712 165.488 192.256C170.663 196.7 175.05 205.137 175.05 218.356C175.05 237.312 174.881 260.769 174.881 265.381C174.881 269.037 177.469 273.481 184.613 272.187C240.863 253.512 279 200.131 279 137.75C279 59.7312 215.719 0.5 137.7 0.5ZM54.675 194.506C53.9437 195.069 54.1125 196.362 55.0688 197.431C55.9688 198.331 57.2625 198.725 57.9937 197.994C58.725 197.431 58.5563 196.137 57.6 195.069C56.7 194.169 55.4062 193.775 54.675 194.506ZM48.6 189.95C48.2063 190.681 48.7687 191.581 49.8937 192.144C50.7937 192.706 51.9188 192.537 52.3125 191.75C52.7062 191.019 52.1437 190.119 51.0187 189.556C49.8937 189.219 48.9938 189.387 48.6 189.95ZM66.825 209.975C65.925 210.706 66.2625 212.394 67.5562 213.462C68.85 214.756 70.4812 214.925 71.2125 214.025C71.9437 213.294 71.6063 211.606 70.4813 210.537C69.2438 209.244 67.5563 209.075 66.825 209.975ZM60.4125 201.706C59.5125 202.269 59.5125 203.731 60.4125 205.025C61.3125 206.319 62.8313 206.881 63.5625 206.319C64.4625 205.587 64.4625 204.125 63.5625 202.831C62.775 201.537 61.3125 200.975 60.4125 201.706Z" fill="#171515"/>
</svg>
