<svg width="152" height="152" viewBox="0 0 152 152" fill="none" xmlns="http://www.w3.org/2000/svg">
<path d="M76.017 37.0291C54.4504 37.0291 37.0548 54.4287 37.0548 76C37.0548 97.5713 54.4504 114.971 76.017 114.971C97.5835 114.971 114.979 97.5713 114.979 76C114.979 54.4287 97.5835 37.0291 76.017 37.0291ZM76.017 101.336C62.0801 101.336 50.6864 89.9739 50.6864 76C50.6864 62.0261 62.0462 50.6638 76.017 50.6638C89.9877 50.6638 101.347 62.0261 101.347 76C101.347 89.9739 89.9538 101.336 76.017 101.336V101.336ZM125.661 35.435C125.661 40.4887 121.592 44.5248 116.573 44.5248C111.52 44.5248 107.485 40.4548 107.485 35.435C107.485 30.4153 111.554 26.3452 116.573 26.3452C121.592 26.3452 125.661 30.4153 125.661 35.435ZM151.466 44.6605C150.889 32.4842 148.109 21.6985 139.191 12.8122C130.306 3.92592 119.523 1.14471 107.349 0.534196C94.8029 -0.178065 57.1971 -0.178065 44.6505 0.534196C32.5109 1.11079 21.7276 3.892 12.8094 12.7783C3.89113 21.6646 1.14445 32.4503 0.534077 44.6266C-0.178026 57.1759 -0.178026 94.7901 0.534077 107.339C1.11054 119.516 3.89113 130.301 12.8094 139.188C21.7276 148.074 32.477 150.855 44.6505 151.466C57.1971 152.178 94.8029 152.178 107.349 151.466C119.523 150.889 130.306 148.108 139.191 139.188C148.075 130.301 150.856 119.516 151.466 107.339C152.178 94.7901 152.178 57.2099 151.466 44.6605V44.6605ZM135.257 120.805C132.612 127.452 127.492 132.574 120.812 135.253C110.808 139.222 87.0715 138.306 76.017 138.306C64.9624 138.306 41.1917 139.188 31.2223 135.253C24.576 132.608 19.4557 127.486 16.7768 120.805C12.8094 110.799 13.7249 87.057 13.7249 76C13.7249 64.943 12.8433 41.167 16.7768 31.1954C19.4218 24.5476 24.5421 19.4261 31.2223 16.7466C41.2257 12.7783 64.9624 13.6941 76.017 13.6941C87.0715 13.6941 110.842 12.8122 120.812 16.7466C127.458 19.3922 132.578 24.5137 135.257 31.1954C139.225 41.2009 138.309 64.943 138.309 76C138.309 87.057 139.225 110.833 135.257 120.805Z" fill="url(#paint0_linear)"/>
<defs>
<linearGradient id="paint0_linear" x1="16.6695" y1="164.076" x2="139.779" y2="-21.0554" gradientUnits="userSpaceOnUse">
<stop stop-color="#FEDA77"/>
<stop offset="0.28024" stop-color="#F58529"/>
<stop offset="0.492396" stop-color="#DD2A7B"/>
<stop offset="0.744792" stop-color="#8134AF"/>
</linearGradient>
</defs>
</svg>
