<svg width="196" height="196" viewBox="0 0 196 196" fill="none" xmlns="http://www.w3.org/2000/svg">
<path d="M43.8725 196H3.2375V65.144H43.8725V196ZM23.5331 47.294C10.5394 47.294 0 36.5315 0 23.5378C9.30037e-08 17.2964 2.47938 11.3106 6.89269 6.89733C11.306 2.48401 17.2918 0.00463867 23.5331 0.00463867C29.7745 0.00463867 35.7602 2.48401 40.1736 6.89733C44.5869 11.3106 47.0663 17.2964 47.0663 23.5378C47.0663 36.5315 36.5225 47.294 23.5331 47.294ZM195.956 196H155.409V132.3C155.409 117.119 155.102 97.6503 134.282 97.6503C113.155 97.6503 109.918 114.144 109.918 131.207V196H69.3263V65.144H108.299V82.994H108.867C114.292 72.7128 127.544 61.8628 147.315 61.8628C188.44 61.8628 196 88.944 196 124.119V196H195.956Z" fill="#0E76A8"/>
</svg>
