<svg width="198" height="501" viewBox="0 0 198 501" fill="none" xmlns="http://www.w3.org/2000/svg">
<g id="LA">
<path id="L" d="M6.5 3V0.5H1.5V3H6.5ZM4 326.729H1.5V329.229H4V326.729ZM195 329.229C196.381 329.229 197.5 328.109 197.5 326.729C197.5 325.348 196.381 324.229 195 324.229V329.229ZM1.5 3V326.729H6.5V3H1.5ZM4 329.229H195V324.229H4V329.229Z" fill="#08FFFF"/>
<path id="A" d="M1.67086 496.82L0.7625 499.15L5.42077 500.966L6.32914 498.637L1.67086 496.82ZM130.254 174L132.555 173.021L130.153 167.378L127.925 173.092L130.254 174ZM192.7 327.131C193.24 328.402 194.708 328.994 195.979 328.453C197.249 327.912 197.841 326.444 197.3 325.174L192.7 327.131ZM6.32914 498.637L132.583 174.908L127.925 173.092L1.67086 496.82L6.32914 498.637ZM127.954 174.979L192.7 327.131L197.3 325.174L132.555 173.021L127.954 174.979Z" fill="#08FFFF"/>
</g>
</svg>
